<?xml version="1.0" encoding="utf-8"?>
<!-- Generator: Adobe Illustrator 15.1.0, SVG Export Plug-In . SVG Version: 6.00 Build 0)  -->
<!DOCTYPE svg PUBLIC "-//W3C//DTD SVG 1.1//EN" "http://www.w3.org/Graphics/SVG/1.1/DTD/svg11.dtd">
<svg version="1.1" id="Layer_1" xmlns="http://www.w3.org/2000/svg" xmlns:xlink="http://www.w3.org/1999/xlink" x="0px" y="0px"
	 width="735px" height="109.5px" viewBox="0 0 735 109.5" enable-background="new 0 0 735 109.5" xml:space="preserve">
<g>
	<g>
		<path fill="#1E97D4" d="M16.081,105.134c-3.55,0-5.813-2.835-5.025-6.296l19.778-88.415c0.787-3.463,4.335-6.295,7.886-6.295
			h165.199c3.552,0,5.813,2.832,5.027,6.295l-20,88.415c-0.786,3.461-4.334,6.296-7.886,6.296H16.081z M38.901,9.75
			c-1.353,0-2.448,1.097-2.448,2.448c0,1.352,1.096,2.448,2.448,2.448s2.448-1.096,2.448-2.448
			C41.349,10.847,40.254,9.75,38.901,9.75z M200.267,9.75c-1.353,0-2.448,1.097-2.448,2.448c0,1.352,1.095,2.448,2.448,2.448
			s2.448-1.096,2.448-2.448C202.715,10.847,201.62,9.75,200.267,9.75z M19.734,94.613c-1.353,0-2.45,1.098-2.45,2.449
			c0,1.353,1.097,2.446,2.45,2.446c1.352,0,2.446-1.095,2.446-2.446C22.181,95.711,21.086,94.613,19.734,94.613z M180.879,94.613
			c-1.353,0-2.448,1.098-2.448,2.449c0,1.353,1.095,2.446,2.448,2.446s2.448-1.095,2.448-2.446S182.232,94.613,180.879,94.613z"/>
	</g>
	<g id="BIB_1_">
		<path fill="#FFFFFF" d="M97.455,41.349c-1.089,4.878-4.487,9.577-10.943,12.197c6.9,2.259,7.856,10.12,6.967,14.095
			C90.331,81.734,78.75,86.253,65.651,86.253c-10.028,0-19.964,0-29.993,0L49.79,23.006c9.937,0,19.964,0,29.993,0
			C92.249,23.006,100.302,28.608,97.455,41.349z M49.888,75.14h18.247c4.88,0,12.198-1.626,13.53-7.589
			c1.272-5.692-5.017-8.674-9.896-8.674H53.521L49.888,75.14z M55.861,48.396h18.25c7.497,0,10.643-3.162,11.45-6.776
			c0.645-2.893-0.613-7.771-8.201-7.771H59.112L55.861,48.396z"/>
		<path fill="#FFFFFF" d="M97.819,86.253l14.131-63.247h11.834l-14.131,63.247H97.819z"/>
		<path fill="#FFFFFF" d="M182.293,41.349c-1.089,4.878-4.487,9.577-10.943,12.197c6.9,2.259,7.856,10.12,6.967,14.095
			c-3.149,14.095-14.729,18.613-27.827,18.613c-10.028,0-19.964,0-29.993,0l14.131-63.247c9.937,0,19.964,0,29.993,0
			C177.087,23.006,185.14,28.608,182.293,41.349z M134.724,75.14h18.25c4.877,0,12.197-1.626,13.529-7.589
			c1.272-5.692-5.017-8.674-9.896-8.674h-18.248L134.724,75.14z M140.701,48.396h18.247c7.5,0,10.643-3.162,11.451-6.776
			c0.645-2.893-0.613-7.771-8.201-7.771H143.95L140.701,48.396z"/>
	</g>
	<g id="NUMBERS_1_">
		<path fill="#FFFFFF" d="M255.793,23.974h11.697l-13.878,62.119h-7.267l-0.021,0.089l-23.243-41.916l-9.346,41.827h-11.697
			l13.86-62.031h9.481l21.801,38.46L255.793,23.974z"/>
		<path fill="#FFFFFF" d="M332.581,24.15l-7.941,35.535c-4.098,18.342-17.452,27.738-33.047,27.738
			c-14.888,0-25.54-9.038-21.361-27.738l7.939-35.535h11.607l-7.939,35.535c-2.495,11.167,2.56,17.104,12.219,17.104
			c9.659,0,16.596-6.469,18.973-17.104l7.938-35.535H332.581z"/>
		<path fill="#FFFFFF" d="M394.264,41.164l-26.225,26.941h-2.301l-13.724-27.029l-10.079,45.105h-11.698l13.86-62.031h13.472
			l13.444,26.673l25.368-26.673h13.379L395.9,86.182h-11.696L394.264,41.164z"/>
		<path fill="#FFFFFF" d="M467.168,42.05c-1.071,4.786-4.403,9.395-10.737,11.964c6.771,2.216,7.708,9.925,6.835,13.824
			c-3.09,13.826-14.443,18.255-27.294,18.255c-9.836,0-19.583,0-29.419,0l13.858-62.031c9.747,0,19.583,0,29.419,0
			C462.062,24.062,469.958,29.557,467.168,42.05z M420.505,75.193h17.9c4.785,0,11.967-1.595,13.271-7.443
			c1.249-5.584-4.924-8.508-9.709-8.508h-17.899L420.505,75.193z M426.366,48.963h17.898c7.357,0,10.44-3.102,11.232-6.646
			c0.637-2.837-0.601-7.623-8.045-7.623h-17.9L426.366,48.963z"/>
		<path fill="#FFFFFF" d="M513.684,86.093H467.25c4.612-20.647,9.246-41.384,13.858-62.031h46.437l-2.535,11.342h-34.825
			l-3.189,14.269h33.587l-2.438,10.898h-33.583l-3.131,14.001h34.826L513.684,86.093z"/>
		<path fill="#FFFFFF" d="M577.748,86.093h-13.912l-13.442-20.737H539.14l-4.635,20.737h-11.698l13.881-62.119
			c9.836,0,19.651,0.088,29.487,0.088c14.604,0.088,20.132,9.835,17.739,20.557c-1.904,8.509-7.721,17.104-20.044,19.498
			l14.058,21.181L577.748,86.093z M545.93,34.961l-4.436,19.851h17.812c7.443,0,11.74-4.963,12.851-9.925
			c1.109-4.962-1.061-9.926-8.414-9.926H545.93z"/>
		<path fill="#FFFFFF" d="M630.842,39.038c-1.334-3.545-6.428-6.912-13.165-6.912c-8.685,0-13.659,3.635-14.689,8.242
			c-1.207,5.405,4.836,6.91,12.08,7.797c12.582,1.594,23.88,4.962,20.575,19.762c-3.089,13.824-16.645,19.761-30.469,19.761
			c-12.673,0-21.55-3.899-23.621-15.242l10.876-5.052c1.225,6.825,7.728,9.836,15.259,9.836c7.354,0,14.842-2.568,16.346-9.304
			c1.306-5.848-4.271-8.242-12.316-9.128c-12.333-1.505-23.277-4.874-20.17-18.786c2.851-12.761,16.604-17.991,28.055-18.079
			c9.658,0,19.061,2.749,21.616,12.32L630.842,39.038z"/>
	</g>
	<g id="_x2E_com_1_">
		<path fill="#1E97D4" d="M635.201,79.951c-0.829,0.811-1.248,1.8-1.248,2.936c0,0.573,0.117,1.122,0.354,1.627
			c0.229,0.494,0.545,0.926,0.939,1.289c0.384,0.348,0.832,0.624,1.33,0.832c0.514,0.211,1.056,0.318,1.614,0.318
			c1.155,0,2.161-0.41,2.987-1.221c0.829-0.811,1.248-1.797,1.248-2.933c0-1.144-0.435-2.124-1.292-2.911
			C639.426,78.328,636.822,78.365,635.201,79.951z"/>
		<path fill="#FFFFFF" d="M662.067,78.611c-0.562,0.563-1.157,0.978-1.825,1.265c-1.422,0.621-3.052,0.522-4.064,0.003
			c-0.558-0.29-0.988-0.656-1.316-1.119c-0.328-0.47-0.536-1.003-0.627-1.624c-0.096-0.644-0.063-1.323,0.091-2.027
			c0.158-0.712,0.436-1.414,0.826-2.081c0.388-0.664,0.883-1.261,1.466-1.773c0.593-0.514,1.261-0.93,1.992-1.236
			c1.176-0.492,2.642-0.763,3.789-0.023c0.491,0.317,0.942,0.755,1.347,1.302l0.504,0.684l5.574-4.573l-0.43-0.611
			c-0.845-1.21-1.964-2.107-3.322-2.667c-2.841-1.157-5.989-1.006-8.918,0.006c-1.556,0.539-2.992,1.318-4.271,2.314
			c-1.277,0.998-2.39,2.21-3.307,3.6c-0.929,1.399-1.591,2.985-1.972,4.711c-0.385,1.745-0.416,3.354-0.095,4.78
			c0.312,1.446,0.917,2.714,1.794,3.761c0.876,1.04,2.021,1.852,3.396,2.414c1.35,0.553,2.866,0.833,4.509,0.833
			c0.495,0,1.094-0.054,1.784-0.161c0.689-0.106,1.432-0.279,2.2-0.521c0.767-0.236,1.558-0.556,2.354-0.945
			c0.8-0.397,1.548-0.876,2.222-1.432l0.584-0.476l-3.609-5.086L662.067,78.611z"/>
		<path fill="#FFFFFF" d="M692.393,66.567c-0.877-1.042-2.018-1.854-3.393-2.415c-2.689-1.097-6.163-1.108-9.315-0.016
			c-1.558,0.539-2.994,1.318-4.271,2.314c-1.271,0.99-2.387,2.202-3.311,3.602c-0.931,1.408-1.593,2.992-1.971,4.71
			c-0.382,1.737-0.413,3.349-0.095,4.786c0.318,1.45,0.924,2.714,1.797,3.755c0.873,1.037,2.015,1.852,3.393,2.414
			c1.35,0.553,2.865,0.833,4.509,0.833c1.63,0,3.247-0.274,4.808-0.815c1.566-0.547,3.004-1.321,4.274-2.314
			c1.27-0.993,2.38-2.203,3.31-3.6c0.928-1.413,1.59-2.998,1.968-4.711c0.381-1.732,0.413-3.343,0.099-4.787
			C693.871,68.87,693.266,67.607,692.393,66.567z M678.707,79.879c-0.558-0.29-0.989-0.656-1.317-1.119
			c-0.334-0.477-0.539-1.006-0.628-1.627c-0.094-0.641-0.062-1.32,0.092-2.024c0.158-0.714,0.437-1.414,0.829-2.082
			c0.386-0.661,0.88-1.258,1.463-1.772c0.594-0.514,1.262-0.93,1.992-1.236c0.731-0.304,1.494-0.452,2.333-0.452
			c0.812,0,1.501,0.144,2.049,0.424c0.553,0.285,0.984,0.653,1.314,1.121c0.331,0.47,0.539,1.001,0.628,1.625
			c0.095,0.641,0.062,1.322-0.092,2.028c-0.151,0.703-0.429,1.403-0.826,2.078c-0.384,0.662-0.879,1.259-1.469,1.775
			c-0.593,0.517-1.242,0.92-1.989,1.231C681.677,80.443,679.826,80.452,678.707,79.879z"/>
		<path fill="#FFFFFF" d="M731.445,66.335c-0.485-0.949-1.229-1.699-2.213-2.23c-0.959-0.52-2.207-0.785-3.708-0.785
			c-1.661,0-3.19,0.339-4.547,1.005c-0.974,0.481-1.895,1.159-2.741,2.024c-0.761-1.592-2.415-3.029-5.92-3.029
			c-1.863,0-3.473,0.425-4.779,1.266c-0.372,0.238-0.723,0.489-1.047,0.749l0.328-1.499h-6.542l-4.884,22.2h6.798l2.612-11.873
			c0.137-0.618,0.348-1.22,0.627-1.789c0.266-0.541,0.618-1.029,1.047-1.453c0.42-0.415,0.914-0.749,1.47-0.993
			c0.542-0.24,1.194-0.361,1.938-0.361c1.385,0,1.644,0.52,1.729,0.687c0.289,0.586,0.313,1.441,0.071,2.536l-2.913,13.246h6.801
			l2.592-11.784c0.132-0.602,0.337-1.203,0.607-1.784c0.266-0.566,0.603-1.074,1.01-1.505c0.394-0.422,0.862-0.768,1.393-1.025
			c0.975-0.468,2.561-0.471,3.175-0.101c0.284,0.172,0.479,0.394,0.604,0.676c0.139,0.329,0.205,0.736,0.191,1.21
			c-0.01,0.533-0.082,1.092-0.208,1.666l-2.783,12.646h6.8l2.838-12.898c0.283-1.282,0.416-2.506,0.391-3.64
			C732.16,68.304,731.912,67.238,731.445,66.335z"/>
	</g>
</g>
</svg>
