<?xml version="1.0" encoding="utf-8"?>
<!-- Generator: Adobe Illustrator 14.0.0, SVG Export Plug-In . SVG Version: 6.00 Build 43363)  -->
<!DOCTYPE svg PUBLIC "-//W3C//DTD SVG 1.1//EN" "http://www.w3.org/Graphics/SVG/1.1/DTD/svg11.dtd">
<svg version="1.1" id="Layer_1" xmlns="http://www.w3.org/2000/svg" xmlns:xlink="http://www.w3.org/1999/xlink" x="0px" y="0px"
	 width="350px" height="275px" viewBox="0 0 350 275" enable-background="new 0 0 350 275" xml:space="preserve">
<g id="Negative_B">
	<path fill="#1E97D4" d="M18.832,270.596c-10.606,0-17.355-8.454-15.008-18.79L55.781,22.96C58.134,12.625,68.719,4.17,79.326,4.17
		h251.853c10.595,0,17.35,8.455,14.997,18.79l-51.958,228.846c-2.344,10.336-12.938,18.79-23.535,18.79H18.832z M79.864,20.952
		c-4.032,0-7.303,3.274-7.303,7.306c0,4.037,3.271,7.308,7.303,7.308c4.034,0,7.308-3.271,7.308-7.308
		C87.172,24.226,83.898,20.952,79.864,20.952z M320.273,20.952c-4.033,0-7.304,3.274-7.304,7.306c0,4.037,3.271,7.308,7.304,7.308
		c4.036,0,7.311-3.271,7.311-7.308C327.584,24.226,324.31,20.952,320.273,20.952z M29.727,239.199c-4.032,0-7.303,3.277-7.303,7.309
		c0,4.037,3.271,7.309,7.303,7.309c4.037,0,7.313-3.271,7.313-7.309C37.04,242.477,33.764,239.199,29.727,239.199z M270.139,239.199
		c-4.034,0-7.303,3.277-7.303,7.309c0,4.037,3.269,7.309,7.303,7.309c4.035,0,7.311-3.271,7.311-7.309
		C277.449,242.477,274.174,239.199,270.139,239.199z"/>
	<path fill="#FFFFFF" d="M258.019,99.325c-2.999,13.451-12.369,26.405-30.174,33.629c19.026,6.227,21.659,27.897,19.209,38.859
		c-8.679,38.859-40.606,51.319-76.719,51.319c-27.646,0-55.043,0-82.696,0l38.965-174.379c27.392,0,55.043,0,82.69,0
		C243.666,48.753,265.868,64.199,258.019,99.325z M126.871,192.492h50.308c13.453,0,33.632-4.486,37.305-20.926
		c3.508-15.692-13.834-23.914-27.282-23.914h-50.311L126.871,192.492z M143.34,118.756h50.319c20.667,0,29.342-8.718,31.567-18.681
		c1.776-7.977-1.69-21.428-22.61-21.428h-50.315L143.34,118.756z"/>
</g>
</svg>
