<?xml version="1.0" encoding="UTF-8"?>
<svg id="Layer_1" data-name="Layer 1" xmlns="http://www.w3.org/2000/svg" viewBox="0 0 344.664 488.322">
  <defs>
    <style>
      .cls-1 {
        fill: #fff;
      }
    </style>
  </defs>
  <path class="cls-1" d="M344.622,52.284l-10.503-50.694c-.002-.009-.007-.016-.009-.025-.037-.167-.097-.328-.177-.483-.015-.029-.03-.056-.047-.084-.079-.138-.17-.27-.284-.389-.006-.007-.014-.011-.021-.018-.013-.014-.029-.024-.043-.038-.119-.114-.249-.209-.387-.288-.022-.013-.042-.027-.064-.039-.153-.08-.316-.137-.482-.175-.016-.004-.03-.013-.046-.017-.015-.003-.031,0-.046-.002-.17-.031-.343-.041-.516-.027-.022.002-.043.006-.064.009-.175.02-.35.058-.517.126,0,0,0,0-.001,0-.112.045-.221.1-.325.166l-34.16,21.703c-.185.117-.35.264-.486.435l-72.908,90.67c-.154.192-.271.41-.347.645l-18.807,58.833s0,0,0,0l-12.145,37.574h-19.711c-.066,0-.126.021-.191.027-.064-.006-.125-.027-.191-.027h-19.712l-12.146-37.574s0,0,0,0l-18.807-58.833c-.075-.234-.192-.453-.346-.645L48.222,22.445c-.137-.17-.301-.317-.486-.435L13.576.307c-.104-.066-.212-.121-.323-.165-.003-.001-.007-.002-.01-.003-.164-.066-.335-.103-.507-.123-.024-.003-.046-.007-.07-.009-.173-.014-.346-.004-.516.027-.015.003-.03,0-.045.002-.016.003-.029.013-.045.016-.167.038-.33.095-.484.175-.022.011-.041.025-.062.038-.14.08-.271.176-.391.291-.013.012-.027.022-.039.034-.007.007-.015.012-.022.019-.114.119-.205.251-.284.389-.016.028-.031.055-.046.084-.079.154-.139.314-.176.48-.002.01-.008.018-.01.028L.042,52.284c-.049.235-.055.477-.018.715l17.255,110.391c.002.011.007.022.009.033.016.091.042.181.071.27.011.034.017.069.03.102.046.12.102.237.173.35l63.243,100.644-5.374,8.645c-.006.01-.008.021-.014.031-.03.051-.046.107-.072.161-.058.12-.112.24-.144.367-.017.065-.021.131-.031.198-.019.125-.031.248-.026.374.001.032-.009.062-.007.094l3.272,38.648-33.496,60.629s0,0,0,.001c-.004.006-.005.013-.009.02-.073.137-.125.279-.164.424-.009.034-.018.067-.026.101-.033.154-.05.31-.047.465,0,.009-.003.017-.003.026l1.852,52.901c.001.039.015.075.018.113.008.085.022.168.041.251.018.081.039.159.067.236.028.078.061.151.098.225.038.075.078.146.124.215.046.068.096.131.149.193.056.064.114.124.178.181.03.026.051.06.083.085l47.184,37.298c.012.009.026.012.038.021.123.093.254.178.401.242l46.059,20.148c.024.011.05.014.075.024.019.008.035.021.054.028l3.001,1.072c.218.077.446.116.673.116.323,0,.645-.078.936-.232l3.595-1.904,15.589-7.709,6.766,1.739c.234.061.468.07.694.048.223.021.453.012.684-.048l6.766-1.739,15.539,7.684,3.644,1.93c.292.154.613.232.937.232.227,0,.455-.039.673-.116l3.001-1.072c.019-.007.035-.02.054-.028.025-.01.05-.013.075-.024l46.059-20.148c.147-.064.278-.149.401-.242.012-.009.026-.012.038-.021l47.185-37.298c.032-.025.053-.058.083-.085.064-.057.122-.117.177-.181.054-.062.104-.125.149-.192.047-.07.088-.142.125-.217.036-.073.069-.145.096-.221.029-.08.05-.16.069-.243.018-.08.031-.159.039-.24.004-.04.018-.078.019-.119l1.851-52.901c0-.009-.003-.017-.003-.025.004-.156-.014-.312-.047-.467-.007-.033-.016-.065-.025-.097-.04-.15-.093-.298-.17-.439,0-.002-.001-.003-.002-.005,0-.001,0-.003-.002-.004l-33.496-60.629,3.271-38.648c.003-.033-.008-.065-.007-.098.004-.123-.007-.243-.026-.365-.01-.069-.015-.138-.032-.206-.032-.124-.085-.241-.141-.358-.027-.056-.044-.116-.076-.169-.006-.009-.007-.02-.013-.029l-5.374-8.644,63.244-100.645c.071-.113.128-.231.174-.351.011-.029.016-.059.026-.089.031-.094.058-.189.075-.285.002-.01.006-.02.008-.03l17.255-110.391c.037-.238.031-.479-.018-.715ZM261.635,260.811l-13.716-21.69,67.403-63.749-53.688,85.438ZM244.138,232.858l-35.43-59.488,52.513-66.224-17.083,125.712ZM226.885,115.332l72.468-90.123,25.538-16.225-19.688,28.44-42.626,61.574-51.052,64.381,15.359-48.046ZM206.827,178.03l33.229,55.791-43.94-22.654,10.712-33.137ZM193.205,214.167l19.473,10.039,29.791,15.359-2.627,4.051-17.809,27.455-45.357-56.904h16.53ZM83.03,260.81l-53.687-85.436,67.403,63.748-13.715,21.689ZM172.333,215.135l46.472,58.304-46.472,14.287-46.473-14.288,46.473-58.304ZM172.333,293.44l34.769,60.418-34.622.769c-.05.001-.098.013-.147.018-.049-.005-.096-.017-.147-.018l-34.623-.769,34.77-60.418ZM172.333,401.904l-13.195-4.213-12.676-8.451-9.593-31.396,35.23.782c.015,0,.029,0,.045,0,.065,0,.127-.013.19-.019.063.006.125.019.19.019.015,0,.03,0,.045,0l35.228-.782-9.593,31.397-12.676,8.451-13.194,4.213ZM136.133,392.687l-35.443,8.264c7.546-9.386,24.307-30.45,32.656-40.948l9.01,29.488-6.223,3.196ZM202.308,389.491l9.01-29.487c8.349,10.498,25.11,31.561,32.656,40.947l-35.442-8.264-6.224-3.196ZM209.361,349.764l-33.854-58.828,44.264-13.608-10.409,72.437ZM135.303,349.764l-10.409-72.437,44.264,13.608-33.855,58.828ZM123.849,313.913c.006.073.017.146.031.217l6.315,31.963-19.722-30.124-10.155-19.314,20.495-18.045,3.036,35.304ZM107.506,342.169c.014-.086.022-.172.024-.259l.665-21.802,23.481,35.562-33.032,41.358,8.861-54.86ZM140.376,395.005l2.869-1.473,1.381-.709,12.526,8.351c.155.104.324.185.501.241l12.485,3.987-.03,15.306-29.733-25.703ZM174.526,405.402l12.484-3.987c.178-.057.346-.138.501-.241l12.526-8.351,4.25,2.182-29.733,25.703-.029-15.307ZM212.987,355.67l23.482-35.562.415,13.613s0,.001,0,.002l.25,8.186c.003.087.011.173.024.259l8.861,54.861-33.032-41.359ZM234.192,315.969l-19.722,30.124,6.315-31.963c.015-.071.024-.144.03-.217l3.037-35.304,20.495,18.045-10.156,19.314ZM83.444,107.146l52.513,66.224-35.43,59.488-17.083-125.712ZM98.027,293.341l-4.47-5.298c-.022-.026-.051-.043-.074-.068-.017-.018-.025-.041-.043-.059l-11.468-11.427h35.196l-19.141,16.852ZM89.615,289.753l-7.794,16.437-2.237-26.433,10.032,9.996ZM82.604,313.873l9.899-20.875,3.624,4.295,8.249,16.883-.412,13.491-10.736-15.058c-.641-.899-1.891-1.109-2.79-.468-.899.642-1.108,1.891-.467,2.79l11.521,16.159-13.75-1.78-5.138-15.437ZM103.537,341.659l-9.583,59.33-43.616-26.211,53.323-37.198-.124,4.08ZM91.314,404.068l-40.91,20.548-1.613-46.102,42.523,25.554ZM97.457,415.152v-2.294l25.162,51.387-24.93-1.061-.232-48.032ZM98.359,405.602l9.002-2.099,28.832-6.722,14.052,14.177,8.547,10.224c.195.232.44.419.718.543l10.633,4.755v15.888l-43.332,21.339-28.451-58.104ZM174.524,426.48l10.632-4.754c.277-.124.523-.311.718-.543l8.547-10.224,14.052-14.177,27.615,6.438,10.218,2.382-28.451,58.104-43.331-21.339v-15.888ZM247.207,412.858v2.295l-.232,48.032-24.93,1.061,25.162-51.388ZM253.351,404.068l42.522-25.554-1.612,46.102-40.91-20.548ZM250.711,400.989l-9.583-59.33-.124-4.08,53.323,37.198-43.616,26.211ZM243.174,331.089l11.521-16.159c.641-.899.432-2.148-.468-2.79-.902-.642-2.148-.431-2.79.468l-10.736,15.057-.411-13.49,8.249-16.882,3.623-4.295,9.899,20.875-5.138,15.437-13.749,1.78ZM262.844,306.189l-3.452-7.278-4.343-9.159,10.032-9.996-2.237,26.433ZM251.225,287.916c-.018.018-.027.042-.045.061-.022.024-.05.04-.071.066l-4.47,5.299-19.141-16.852h35.196l-11.468,11.427ZM122.632,271.071l-20.436-31.506,49.264-25.398h16.531l-45.358,56.904ZM145.515,212.731l-40.905,21.089,33.228-55.791,10.711,33.138-3.034,1.564ZM117.78,115.332l15.359,48.046-51.052-64.381-42.626-61.574L19.774,8.984l25.538,16.225,72.468,90.123ZM13.515,6.971l22.181,32.041,42.866,61.922,18.007,132.516L21.126,162.097,4.032,52.74,13.515,6.971ZM99.352,242.53l19.433,29.959h-38.056l18.623-29.959ZM79.996,318.704l4.347,13.06c.242.728.88,1.253,1.641,1.352l14.411,1.865-47.821,33.36,27.423-49.637ZM52.217,428.181l4.476-2.248,36.764-18.466v7.699l.221,45.788-41.461-32.773ZM106.296,467.555l18.635.793,9.789,11.641-28.424-12.434ZM147.466,482.625l-2.865,1.518-1.661-.594-11.495-13.67,27.497,7.071-11.476,5.675ZM179.534,474.411c-.016.004-.031.008-.048.013l-7.154,1.84-7.152-1.84c-.018-.004-.035-.009-.053-.013l-33.505-8.616,40.71-20.048,40.709,20.048-33.507,8.616ZM200.064,484.142l-2.914-1.543-11.426-5.649,27.496-7.071-11.495,13.67-1.661.594ZM209.945,479.988l9.788-11.641,18.635-.793-28.423,12.434ZM250.986,460.955l.221-45.788v-7.699l38.755,19.465,2.485,1.248-41.461,32.773ZM244.27,334.98l14.411-1.865c.761-.099,1.398-.624,1.641-1.352l4.347-13.059,27.423,49.637-47.821-33.36ZM225.881,272.489l17.728-27.332,1.704-2.627,18.623,29.959h-38.055ZM323.539,162.097l-75.445,71.354,18.007-132.516L331.15,6.971l9.482,45.769-17.093,109.357Z"/>
</svg>