<?xml version="1.0" encoding="UTF-8"?>
<svg id="Layer_1" data-name="Layer 1" xmlns="http://www.w3.org/2000/svg" viewBox="0 0 1920 1080">
  <defs>
    <style>
      .cls-1 {
        fill: #000;
        stroke-width: 0px;
      }
    </style>
  </defs>
  <g>
    <path class="cls-1" d="M1428.69,521.7l-21.34,6.62-16.56-25.79,8.04,2.3.05-.16,10.9,16.98,13.26-4.11v-5.98l5.65.68v9.46ZM1428.69,507.97l-5.65-.68v-4.71l-15.02-10.29-8.37,8.37-6.21-1.78,13.91-13.91,21.34,14.63v8.37Z"/>
    <line class="cls-1" x1="413.5" y1="660.82" x2="413.51" y2="660.84"/>
    <line class="cls-1" x1="1456.83" y1="710.24" x2="1389.73" y2="735.66"/>
    <path class="cls-1" d="M823.16,622.61s.03.03.04.04"/>
    <polygon class="cls-1" points="1393.43 498.89 1399.65 500.66 1408.02 492.29 1423.04 502.58 1423.04 507.29 1428.69 507.97 1428.69 499.6 1407.34 484.97 1393.43 498.89"/>
    <polygon class="cls-1" points="1483.88 597.77 1435.04 611.34 1431.22 600.67 1476.16 588.91 1483.88 597.77"/>
    <polygon class="cls-1" points="628.02 559.98 578.35 496.9 560.3 492.38 624.49 572.18 628.02 559.98"/>
    <path class="cls-1" d="M645.45,508.85l3.98-10.67-88.16-21.53c-2.35-.56-4.79.43-6.08,2.46-1.29,2.04-1.15,4.67.35,6.55l.86,1.08,89.05,22.1Z"/>
    <polygon class="cls-1" points="1244.9 704.85 1250.48 703.49 1182 551.52 1177.26 546.48 1177.6 553.54 1244.9 704.85"/>
    <polygon class="cls-1" points="501.2 657.43 510.26 653.01 548.55 585.04 538.17 591.76 501.2 657.43"/>
    <polygon class="cls-1" points="686.18 496.57 681.79 486.15 654.24 498.73 648.57 513.94 644.52 525.09 650.15 526.06 655.77 510.21 686.18 496.57"/>
    <path class="cls-1" d="M403.03,721.93l18.08-30.65-14.32,2.28-17,28.74c-.84,1.47-.98,3.24-.37,4.82.6,1.58,1.88,2.81,3.49,3.34l41.06,13.69,6.54-9.73-37.48-12.49Z"/>
    <polygon class="cls-1" points="667.33 524.6 639.59 558.74 649.25 529.77 643.62 528.8 634.22 556.99 630.06 569.35 640.14 566.02 672.13 527.65 667.33 524.6"/>
    <path class="cls-1" d="M486,674.76l-42.65,60.61-.06-.02-6.54,9.73,7.01,2.34c2.37.8,4.97-.07,6.41-2.11l50.72-72.08-7.24-.31-7.66,1.84Z"/>
    <path class="cls-1" d="M691.9,494.36l-21.78,27.03,4.8,3.06,28.38-35.15,2.94-1.31,124.15,18.93,26.35-7.4-150.42-22.95c-1.07-.17-2.16-.02-3.15.42l-15.79,7.02,4.39,10.42.14-.06Z"/>
    <polygon class="cls-1" points="788.94 697.26 792.99 693.36 713.47 631.22 706.67 633.02 788.94 697.26"/>
    <polygon class="cls-1" points="414.77 664.85 402.07 663.37 409.92 681.52 420.78 678.28 414.77 664.85"/>
    <polygon class="cls-1" points="785.85 700.21 787.52 699.01 686.5 639.65 678.72 641.72 785.85 700.21"/>
    <polygon class="cls-1" points="1238.84 494.53 1222.27 504.78 1230.38 512.61 1250.2 499.41 1319.13 435.41 1321.89 478.44 1329.42 480.59 1370.23 421.54 1365.38 418.63 1334.22 463.36 1352.47 411.75 1346.67 411.27 1326.86 467.56 1321.75 411.76 1238.84 494.53"/>
    <path class="cls-1" d="M401.75,653.63c-1.35,1.56-1.79,3.77-.99,5.77l71.22,6.83,16.89-4.14-87.12-8.46Z"/>
    <polygon class="cls-1" points="1358.49 624.25 1366.3 632.51 1392.6 615.28 1381.89 609.19 1358.49 624.25"/>
    <path class="cls-1" d="M550.56,578.95l5.14-10.88-.46-.66c-1.65-.76-3.58-.66-5.16.25l-144.74,82.5,19.13,2.01,126.08-73.22Z"/>
    <polygon class="cls-1" points="1521.91 744.58 1528.51 744.83 1485.21 705.37 1480.62 707.05 1521.91 744.58"/>
    <polygon class="cls-1" points="1473.38 705.17 1481.67 702.15 1472.52 693.81 1373.59 688.87 1369.3 699.97 1473.38 705.17"/>
    <polygon class="cls-1" points="624.89 603.58 621.11 607.93 674.22 637.73 682.01 635.66 624.89 603.58"/>
    <polygon class="cls-1" points="1456.83 710.24 1442.49 709.63 1353.37 743.78 1350.89 750.18 1389.73 735.66 1456.83 710.24"/>
    <path class="cls-1" d="M856.19,510.94l220.21,33.36h91.14l15.8-4.3,35.78-20.87,7.88-4.63-8.16-7.87-45.93,26.38h-97.98l-205.42-31.45-232.13,69.39s0-.02,0-.03l-13.67,4.5-10.9,18.16-52.53-23.33-4.13,10.05,3.46,1.51,53.12,24.14c1.51.69,3.15.56,4.58-.09l4.24-4.88,14.92-24.87,66.45,52.73,6.8-1.81-65.74-52.17,205.66-61.7-53.74,181.69-11.36,10.98-59.34,28.39-13.43,8.06,7.11,4.54c1.65,1.05,3.71,1.18,5.48.34l72.15-34.52,59.68-201.69Z"/>
    <polygon class="cls-1" points="1129.38 730 1134.56 729.53 1077.2 550.24 1071.04 549.49 1129.38 730"/>
    <polygon class="cls-1" points="803.89 701.06 800.64 713.02 868.4 744.38 890.26 743.81 803.89 701.06"/>
    <path class="cls-1" d="M873.58,746.82l18.76,8.83c.84.39,1.74.57,2.67.53l242.96-11.3,121.72-32.52,67.62-9.97,39-6.43,2.83-7.32-.04-.57-5.12-53.57.03-.02-8.11-8.59-107.37-102.7,135.79,81.94h-.02s12.24,6.97,12.24,6.97l33.44-.07c1.31-.03.33,0,1.31-.03l-4.01-11.2h-35.14l-63.36-114.71-8.13-2.56,63.93,115.16-146.54-88.04-6.47,4.1,110.73,105.94-155.67-77.54-7.48,1.98,173.29,87.05s0,.02,0,.03h.02s.57,6.88.57,6.88h.02s4.82,52.96,4.82,52.96l-96.3,14.45,87.95-64.28-.55-6.61-94.42,68.5-1.27.85-1.94.44-119.68,27.86-258.06,13.57Z"/>
    <path class="cls-1" d="M1586.05,726.32c2.72-1.22,4.5-5.64,3.97-7.78-.54-2.15-2.27-3.79-4.44-4.19l-103.42-19.39,15.88,14.47,88,16.9Z"/>
    <polygon class="cls-1" points="1567.87 728.13 1540.24 747.88 1548.7 755.58 1582.83 730.67 1567.87 728.13"/>
    <path class="cls-1" d="M1498.72,572.25c.81-1.63.79-3.55-.06-5.16l-26.09-47.57-13.64-1.64,28.37,51.91-8.09,16.18,8.82,9.35,10.67-23.07Z"/>
    <path class="cls-1" d="M1375.32,746.79l-26.8,10.54,191.19,5.5h.16c1.27,0,2.52-.43,3.51-1.22l1.84-1.46-9.69-8.82-160.22-4.52Z"/>
    <path class="cls-1" d="M1272.44,714.66l-18.82,5.3,86.65,35.76c.66.29,1.36.44,2.07.46l.67.02,12.85-33.25,8.39-22.36-6.43,1.06-15.93,42.46-69.46-29.46Z"/>
    <polygon class="cls-1" points="568.88 637.98 558.12 585.21 555.07 583.93 553.61 586.47 563.22 638.5 513.6 655.04 496.53 663.33 489.29 665.2 481.94 667.05 425.99 680.55 411 685.19 408.59 689.41 422.71 687.16 479.37 673.48 479.37 673.45 493.39 670.08 502.99 670.48 566.26 649.39 590.28 664.36 617.1 668.07 568.88 637.98"/>
    <polygon class="cls-1" points="823.11 635.08 882.66 735.38 893.9 742.75 828.14 632.5 824.26 631.11 823.11 635.08"/>
    <polygon class="cls-1" points="1143.18 727.48 1174.81 552.28 1174.73 545.78 1169.35 547.21 1137.17 728.92 1143.18 727.48"/>
    <polygon class="cls-1" points="1067.55 548.31 1054.68 546.73 835.14 619.69 844.54 622.46 1067.55 548.31"/>
    <path class="cls-1" d="M1433.01,466.61l23.53,44.72,13.64,1.64-28.02-53.23c-.55-1.05-1.41-1.89-2.47-2.42l-48.26-23.13-15.8,3.34,57.37,29.08Z"/>
    <polygon class="cls-1" points="596.99 669.01 708.11 739.58 718.94 733.09 637.22 681.28 778.24 704.95 783.11 702.18 596.99 669.01"/>
    <polygon class="cls-1" points="838.9 625.04 829.5 622.28 826.9 623.51 826.06 626.39 825.94 626.7 827.55 627.23 1116.2 730.54 1125.71 730.19 838.9 625.04"/>
  </g>
  <g>
    <path class="cls-1" d="M1389.24,429.98l41.79-95.26c.86-1.93.57-4.18-.76-5.83-1.32-1.65-3.45-2.42-5.52-2.01l-20.85,4.37-7.24,12.76,19.6-3.91-48.99,74.2,4.85,2.91,28.97-42.99-25.93,59.1,14.07-3.35Z"/>
    <path class="cls-1" d="M1400.49,329.49l-10.86-24.83c-.89-1.97-2.83-3.25-4.98-3.31-2.36-.06-4.16,1.12-5.16,3.03l-54.31,103.68,1.46,21.14,38.39-72.86-16.83,50.37,5.8.48,27.49-82.28,2.65-5.05,10.1,22.1,6.26-12.47Z"/>
  </g>
</svg>