<?xml version="1.0" encoding="UTF-8"?>
<svg id="Layer_1" data-name="Layer 1" xmlns="http://www.w3.org/2000/svg" viewBox="0 0 1920 1080">
  <defs>
    <style>
      .cls-1 {
        fill: #fff;
        stroke-width: 0px;
      }
    </style>
  </defs>
  <g>
    <path class="cls-1" d="M1414.24,500.43l-21.34,6.62-16.56-25.79,8.04,2.3.05-.16,10.9,16.98,13.26-4.11v-5.98l5.65.68v9.46ZM1414.24,486.7l-5.65-.68v-4.71l-15.02-10.29-8.37,8.37-6.21-1.78,13.91-13.91,21.34,14.63v8.37Z"/>
    <line class="cls-1" x1="399.05" y1="639.55" x2="399.06" y2="639.57"/>
    <line class="cls-1" x1="1442.38" y1="688.96" x2="1375.28" y2="714.39"/>
    <path class="cls-1" d="M808.71,601.33s.03.03.04.04"/>
    <polygon class="cls-1" points="1378.99 477.61 1385.2 479.39 1393.58 471.02 1408.59 481.31 1408.59 486.02 1414.24 486.7 1414.24 478.33 1392.9 463.7 1378.99 477.61"/>
    <polygon class="cls-1" points="1469.43 576.5 1420.6 590.07 1416.77 579.4 1461.72 567.64 1469.43 576.5"/>
    <polygon class="cls-1" points="613.57 538.71 563.9 475.62 545.86 471.11 610.05 550.91 613.57 538.71"/>
    <path class="cls-1" d="M631.01,487.58l3.98-10.67-88.16-21.53c-2.35-.56-4.79.43-6.08,2.46-1.29,2.04-1.15,4.67.35,6.55l.86,1.08,89.05,22.1Z"/>
    <polygon class="cls-1" points="1230.46 683.57 1236.04 682.22 1167.56 530.25 1162.82 525.21 1163.16 532.27 1230.46 683.57"/>
    <polygon class="cls-1" points="486.76 636.16 495.82 631.74 534.11 563.77 523.72 570.49 486.76 636.16"/>
    <polygon class="cls-1" points="671.73 475.3 667.35 464.88 639.8 477.46 634.13 492.67 630.08 503.81 635.71 504.78 641.32 488.94 671.73 475.3"/>
    <path class="cls-1" d="M388.59,700.66l18.08-30.65-14.32,2.28-17,28.74c-.84,1.47-.98,3.24-.37,4.82.6,1.58,1.88,2.81,3.49,3.34l41.06,13.69,6.54-9.73-37.48-12.49Z"/>
    <polygon class="cls-1" points="652.89 503.33 625.15 537.47 634.81 508.49 629.17 507.52 619.78 535.72 615.62 548.07 625.7 544.75 657.69 506.38 652.89 503.33"/>
    <path class="cls-1" d="M471.56,653.49l-42.65,60.61-.06-.02-6.54,9.73,7.01,2.34c2.37.8,4.97-.07,6.41-2.11l50.72-72.08-7.24-.31-7.66,1.84Z"/>
    <path class="cls-1" d="M677.46,473.09l-21.78,27.03,4.8,3.06,28.38-35.15,2.94-1.31,124.15,18.93,26.35-7.4-150.42-22.95c-1.07-.17-2.16-.02-3.15.42l-15.79,7.02,4.39,10.42.14-.06Z"/>
    <polygon class="cls-1" points="774.5 675.99 778.54 672.09 699.02 609.95 692.22 611.75 774.5 675.99"/>
    <polygon class="cls-1" points="400.33 643.58 387.63 642.09 395.47 660.25 406.34 657.01 400.33 643.58"/>
    <polygon class="cls-1" points="771.4 678.94 773.07 677.74 672.06 618.38 664.27 620.45 771.4 678.94"/>
    <polygon class="cls-1" points="1224.4 473.26 1207.82 483.51 1215.93 491.34 1235.76 478.14 1304.68 414.13 1307.45 457.17 1314.98 459.32 1355.79 400.27 1350.94 397.36 1319.78 442.08 1338.02 390.48 1332.22 390 1312.41 446.28 1307.3 390.49 1224.4 473.26"/>
    <path class="cls-1" d="M387.3,632.35c-1.35,1.56-1.79,3.77-.99,5.77l71.22,6.83,16.89-4.14-87.12-8.46Z"/>
    <polygon class="cls-1" points="1344.05 602.97 1351.85 611.24 1378.16 594.01 1367.45 587.92 1344.05 602.97"/>
    <path class="cls-1" d="M536.11,557.67l5.14-10.88-.46-.66c-1.65-.76-3.58-.66-5.16.25l-144.74,82.5,19.13,2.01,126.08-73.22Z"/>
    <polygon class="cls-1" points="1507.46 723.31 1514.07 723.56 1470.76 684.1 1466.17 685.77 1507.46 723.31"/>
    <polygon class="cls-1" points="1458.94 683.9 1467.22 680.88 1458.07 672.54 1359.14 667.6 1354.85 678.7 1458.94 683.9"/>
    <polygon class="cls-1" points="610.45 582.31 606.67 586.66 659.78 616.46 667.56 614.39 610.45 582.31"/>
    <polygon class="cls-1" points="1442.38 688.96 1428.04 688.35 1338.92 722.5 1336.44 728.91 1375.28 714.39 1442.38 688.96"/>
    <path class="cls-1" d="M841.74,489.67l220.21,33.36h91.14l15.8-4.3,35.78-20.87,7.88-4.63-8.16-7.87-45.93,26.38h-97.98l-205.42-31.45-232.13,69.39s0-.02,0-.03l-13.67,4.5-10.9,18.16-52.53-23.33-4.13,10.05,3.46,1.51,53.12,24.14c1.51.69,3.15.56,4.58-.09l4.24-4.88,14.92-24.87,66.45,52.73,6.8-1.81-65.74-52.17,205.66-61.7-53.74,181.69-11.36,10.98-59.34,28.39-13.43,8.06,7.11,4.54c1.65,1.05,3.71,1.18,5.48.34l72.15-34.52,59.68-201.69Z"/>
    <polygon class="cls-1" points="1114.94 708.73 1120.11 708.26 1062.76 528.97 1056.59 528.22 1114.94 708.73"/>
    <polygon class="cls-1" points="789.45 679.79 786.2 691.75 853.95 723.11 875.82 722.54 789.45 679.79"/>
    <path class="cls-1" d="M859.14,725.55l18.76,8.83c.84.39,1.74.57,2.67.53l242.96-11.3,121.72-32.52,67.62-9.97,39-6.43,2.83-7.32-.04-.57-5.12-53.57.03-.02-8.11-8.59-107.37-102.7,135.79,81.94h-.02s12.24,6.97,12.24,6.97l33.44-.07c1.31-.03.33,0,1.31-.03l-4.01-11.2h-35.14l-63.36-114.71-8.13-2.56,63.93,115.16-146.54-88.04-6.47,4.1,110.73,105.94-155.67-77.54-7.48,1.98,173.29,87.05s0,.02,0,.03h.02s.57,6.88.57,6.88h.02s4.82,52.96,4.82,52.96l-96.3,14.45,87.95-64.28-.55-6.61-94.42,68.5-1.27.85-1.94.44-119.68,27.86-258.06,13.57Z"/>
    <path class="cls-1" d="M1571.6,705.05c2.72-1.22,4.5-5.64,3.97-7.78-.54-2.15-2.27-3.79-4.44-4.19l-103.42-19.39,15.88,14.47,88,16.9Z"/>
    <polygon class="cls-1" points="1553.42 706.85 1525.8 726.6 1534.26 734.31 1568.38 709.4 1553.42 706.85"/>
    <path class="cls-1" d="M1484.27,550.98c.81-1.63.79-3.55-.06-5.16l-26.09-47.57-13.64-1.64,28.37,51.91-8.09,16.18,8.82,9.35,10.67-23.07Z"/>
    <path class="cls-1" d="M1360.87,725.52l-26.8,10.54,191.19,5.5h.16c1.27,0,2.52-.43,3.51-1.22l1.84-1.46-9.69-8.82-160.22-4.52Z"/>
    <path class="cls-1" d="M1258,693.38l-18.82,5.3,86.65,35.76c.66.29,1.36.44,2.07.46l.67.02,12.85-33.25,8.39-22.36-6.43,1.06-15.93,42.46-69.46-29.46Z"/>
    <polygon class="cls-1" points="554.43 616.71 543.68 563.93 540.62 562.65 539.17 565.2 548.77 617.23 499.15 633.77 482.09 642.06 474.84 643.93 467.5 645.77 411.54 659.28 396.56 663.92 394.15 668.14 408.26 665.89 464.93 652.21 464.92 652.18 478.94 648.81 488.54 649.21 551.82 628.12 575.83 643.09 602.65 646.8 554.43 616.71"/>
    <polygon class="cls-1" points="808.66 613.81 868.21 714.11 879.46 721.47 813.7 611.22 809.82 609.83 808.66 613.81"/>
    <polygon class="cls-1" points="1128.73 706.21 1160.36 531.01 1160.29 524.51 1154.91 525.93 1122.72 707.65 1128.73 706.21"/>
    <polygon class="cls-1" points="1053.11 527.03 1040.24 525.46 820.7 598.42 830.09 601.18 1053.11 527.03"/>
    <path class="cls-1" d="M1418.56,445.34l23.53,44.72,13.64,1.64-28.02-53.23c-.55-1.05-1.41-1.89-2.47-2.42l-48.26-23.13-15.8,3.34,57.37,29.08Z"/>
    <polygon class="cls-1" points="582.55 647.73 693.67 718.31 704.49 711.82 622.78 660.01 763.8 683.68 768.66 680.91 582.55 647.73"/>
    <polygon class="cls-1" points="824.45 603.77 815.05 601.01 812.45 602.24 811.61 605.12 811.49 605.43 813.1 605.96 1101.75 709.27 1111.27 708.92 824.45 603.77"/>
  </g>
  <g>
    <path class="cls-1" d="M1374.8,408.7l41.79-95.26c.86-1.93.57-4.18-.76-5.83-1.32-1.65-3.45-2.42-5.52-2.01l-20.85,4.37-7.24,12.76,19.6-3.91-48.99,74.2,4.85,2.91,28.97-42.99-25.93,59.1,14.07-3.35Z"/>
    <path class="cls-1" d="M1386.04,308.22l-10.86-24.83c-.89-1.97-2.83-3.25-4.98-3.31-2.36-.06-4.16,1.12-5.16,3.03l-54.31,103.68,1.46,21.14,38.39-72.86-16.83,50.37,5.8.48,27.49-82.28,2.65-5.05,10.1,22.1,6.26-12.47Z"/>
  </g>
</svg>