<svg id="Layer_2" data-name="Layer 2" xmlns="http://www.w3.org/2000/svg" viewBox="0 0 200 200" height="1.75em" width="1.75em">
  <defs>
    <style>
      .cls-1 {
        fill: #000;
        stroke-width: 0px;
      }
    </style>
  </defs>
  <g id="_2019_sponsor_logos" data-name="2019 sponsor logos">
    <path class="cls-1" d="M200,99.85c.09,55.23-44.64,100.06-99.85,100.15C44.92,200.09.08,155.39,0,100.15-.1,44.92,44.6.07,99.85,0c55.2-.09,100.07,44.61,100.15,99.85ZM100.76,128.94l-15.83-8.93-42.35,21.24c-1.31-4.35-4.96-7.45-9.26-7.45-5.39,0-9.77,4.9-9.77,10.91.01,6.01,4.39,10.88,9.78,10.87.56,0,1.09-.06,1.61-.13l.57,1.11c-1.49,1.89-2.36,4.34-2.36,6.99,0,5.89,4.38,10.65,9.77,10.65,5.4-.01,9.75-4.78,9.73-10.67,0-3.48-1.52-6.56-3.87-8.5l51.98-26.1ZM192.61,89.23c0-6.01-4.4-10.89-9.78-10.87-.86,0-1.68.12-2.46.36,1.87-1.99,3-4.79,3-7.89,0-6.02-4.39-10.87-9.78-10.87-5.39,0-9.76,4.89-9.74,10.9,0,3.06,1.13,5.8,2.94,7.77l-23.18,11.65c2.94-6.07,4.57-12.88,4.55-20.08-.03-25.46-20.71-46.09-46.2-46.05-25.46.04-46.1,20.73-46.04,46.2,0,4.64.69,9.09,1.96,13.31l-18.06-10.18c1.82-1.99,2.95-4.74,2.95-7.77,0-6.05-4.46-10.94-9.95-10.93-5.48,0-9.92,4.9-9.92,10.96,0,2.98,1.12,5.71,2.89,7.68-.68-.18-1.4-.25-2.12-.25-5.47.01-9.93,4.9-9.92,10.95.03,6.04,4.47,10.92,9.96,10.92,4.22,0,7.82-2.92,9.25-7.02l54.39,30.67,15.84,8.93,49.01,27.65c-1.01,1.87-1.61,4.17-1.61,6.65,0,6.23,3.76,11.26,8.37,11.26s8.35-5.05,8.33-11.29c0-3.89-1.48-7.36-3.74-9.36,1.36.84,2.99,1.34,4.69,1.34,5.06,0,9.13-4.3,9.13-9.59,0-5.32-4.1-9.6-9.14-9.6-3.97.01-7.35,2.65-8.6,6.38l-39.2-22.11-6.96-3.93c1.18-.29,2.36-.64,3.54-1.05l6.19,3.51,50.27-25.25c1.15,4.58,4.94,7.93,9.41,7.92,5.41,0,9.76-4.89,9.75-10.9ZM119.63,64.19c5.28,0,9.55-3.98,9.55-8.9-.02-4.9-4.29-8.86-9.58-8.86-5.29,0-9.56,3.98-9.56,8.89.01,4.92,4.3,8.89,9.59,8.87ZM87.68,64.24c5.28,0,9.55-3.99,9.55-8.9-.01-4.9-4.3-8.87-9.56-8.86-5.29,0-9.57,3.99-9.57,8.89,0,4.91,4.3,8.88,9.58,8.87ZM133.23,70.66c-2.61,0-4.73,1.2-4.74,2.67.03,1.15,1.31,2.11,3.07,2.5-1.87,13.84-14.04,24.55-28.79,24.57-14.74.02-26.95-10.64-28.89-24.49,1.81-.38,3.07-1.35,3.07-2.5,0-1.46-2.11-2.66-4.72-2.66-2.6,0-4.69,1.21-4.69,2.68,0,1.07,1.1,1.98,2.71,2.42,1.1,15.62,15.28,27.96,32.61,27.94,17.37-.03,31.52-12.44,32.56-28.09,1.51-.45,2.54-1.35,2.54-2.38,0-1.46-2.13-2.66-4.72-2.66Z"/>
  </g> 
</svg>